{
 "cells": [
  {
   "cell_type": "code",
   "execution_count": 5,
   "id": "45cb47c7",
   "metadata": {},
   "outputs": [
    {
     "name": "stdout",
     "output_type": "stream",
     "text": [
      "rm: cannot remove './downloads/output.mp4': No such file or directory\n",
      "ffmpeg version 5.0.1 Copyright (c) 2000-2022 the FFmpeg developers\n",
      "  built with gcc 10.3.0 (GCC)\n",
      "  configuration: --prefix=/home/conda/feedstock_root/build_artifacts/ffmpeg_1649114005999/_h_env_placehold_placehold_placehold_placehold_placehold_placehold_placehold_placehold_placehold_placehold_placehold_placehold_placehold_placehold_placehold_placehold_placehold_placehold_plac --cc=/home/conda/feedstock_root/build_artifacts/ffmpeg_1649114005999/_build_env/bin/x86_64-conda-linux-gnu-cc --disable-doc --disable-openssl --enable-demuxer=dash --enable-gnutls --enable-gpl --enable-hardcoded-tables --enable-libfreetype --enable-libopenh264 --enable-vaapi --enable-libx264 --enable-libx265 --enable-libaom --enable-libsvtav1 --enable-libxml2 --enable-libvpx --enable-pic --enable-pthreads --enable-shared --disable-static --enable-version3 --enable-zlib --enable-libmp3lame --pkg-config=/home/conda/feedstock_root/build_artifacts/ffmpeg_1649114005999/_build_env/bin/pkg-config\n",
      "  libavutil      57. 17.100 / 57. 17.100\n",
      "  libavcodec     59. 18.100 / 59. 18.100\n",
      "  libavformat    59. 16.100 / 59. 16.100\n",
      "  libavdevice    59.  4.100 / 59.  4.100\n",
      "  libavfilter     8. 24.100 /  8. 24.100\n",
      "  libswscale      6.  4.100 /  6.  4.100\n",
      "  libswresample   4.  3.100 /  4.  3.100\n",
      "  libpostproc    56.  3.100 / 56.  3.100\n",
      "Input #0, mov,mp4,m4a,3gp,3g2,mj2, from './downloads/temp.mp4':\n",
      "  Metadata:\n",
      "    major_brand     : mp42\n",
      "    minor_version   : 0\n",
      "    compatible_brands: isommp42\n",
      "    creation_time   : 2022-02-07T12:15:38.000000Z\n",
      "  Duration: 00:07:13.31, start: 0.000000, bitrate: 1187 kb/s\n",
      "  Stream #0:0[0x1](und): Video: h264 (High) (avc1 / 0x31637661), yuv420p(tv, bt709, progressive), 1280x720 [SAR 1:1 DAR 16:9], 1056 kb/s, 30 fps, 30 tbr, 15360 tbn (default)\n",
      "    Metadata:\n",
      "      creation_time   : 2022-02-07T12:15:38.000000Z\n",
      "      handler_name    : ISO Media file produced by Google Inc. Created on: 02/07/2022.\n",
      "      vendor_id       : [0][0][0][0]\n",
      "  Stream #0:1[0x2](eng): Audio: aac (LC) (mp4a / 0x6134706D), 44100 Hz, stereo, fltp, 128 kb/s (default)\n",
      "    Metadata:\n",
      "      creation_time   : 2022-02-07T12:15:38.000000Z\n",
      "      handler_name    : ISO Media file produced by Google Inc. Created on: 02/07/2022.\n",
      "      vendor_id       : [0][0][0][0]\n",
      "Stream mapping:\n",
      "  Stream #0:0 -> #0:0 (h264 (native) -> h264 (libx264))\n",
      "  Stream #0:1 -> #0:1 (aac (native) -> aac (native))\n",
      "Press [q] to stop, [?] for help\n",
      "\u001b[1;36m[libx264 @ 0x56026df7ab00] \u001b[0musing SAR=1/1\n",
      "\u001b[1;36m[libx264 @ 0x56026df7ab00] \u001b[0musing cpu capabilities: MMX2 SSE2Fast SSSE3 SSE4.2 AVX FMA3 BMI2 AVX2 AVX512\n",
      "\u001b[1;36m[libx264 @ 0x56026df7ab00] \u001b[0mprofile High, level 3.1, 4:2:0, 8-bit\n",
      "\u001b[1;36m[libx264 @ 0x56026df7ab00] \u001b[0m264 - core 161 r3030M 8bd6d28 - H.264/MPEG-4 AVC codec - Copyleft 2003-2020 - http://www.videolan.org/x264.html - options: cabac=1 ref=3 deblock=1:0:0 analyse=0x3:0x113 me=hex subme=7 psy=1 psy_rd=1.00:0.00 mixed_ref=1 me_range=16 chroma_me=1 trellis=1 8x8dct=1 cqm=0 deadzone=21,11 fast_pskip=1 chroma_qp_offset=-2 threads=22 lookahead_threads=3 sliced_threads=0 nr=0 decimate=1 interlaced=0 bluray_compat=0 constrained_intra=0 bframes=3 b_pyramid=2 b_adapt=1 b_bias=0 direct=1 weightb=1 open_gop=0 weightp=2 keyint=250 keyint_min=25 scenecut=40 intra_refresh=0 rc_lookahead=40 rc=crf mbtree=1 crf=23.0 qcomp=0.60 qpmin=0 qpmax=69 qpstep=4 ip_ratio=1.40 aq=1:1.00\n",
      "Output #0, mp4, to './downloads/output.mp4':\n",
      "  Metadata:\n",
      "    major_brand     : mp42\n",
      "    minor_version   : 0\n",
      "    compatible_brands: isommp42\n",
      "    encoder         : Lavf59.16.100\n",
      "  Stream #0:0(und): Video: h264 (avc1 / 0x31637661), yuv420p(tv, bt709, progressive), 1280x720 [SAR 1:1 DAR 16:9], q=2-31, 30 fps, 15360 tbn (default)\n",
      "    Metadata:\n",
      "      creation_time   : 2022-02-07T12:15:38.000000Z\n",
      "      handler_name    : ISO Media file produced by Google Inc. Created on: 02/07/2022.\n",
      "      vendor_id       : [0][0][0][0]\n",
      "      encoder         : Lavc59.18.100 libx264\n",
      "    Side data:\n",
      "      cpb: bitrate max/min/avg: 0/0/0 buffer size: 0 vbv_delay: N/A\n",
      "  Stream #0:1(eng): Audio: aac (LC) (mp4a / 0x6134706D), 44100 Hz, stereo, fltp, 128 kb/s (default)\n",
      "    Metadata:\n",
      "      creation_time   : 2022-02-07T12:15:38.000000Z\n",
      "      handler_name    : ISO Media file produced by Google Inc. Created on: 02/07/2022.\n",
      "      vendor_id       : [0][0][0][0]\n",
      "      encoder         : Lavc59.18.100 aac\n",
      "frame=  570 fps=146 q=-1.0 Lsize=    1863kB time=00:00:19.01 bitrate= 802.6kbits/s speed=4.89x    \n",
      "video:1537kB audio:305kB subtitle:0kB other streams:0kB global headers:0kB muxing overhead: 1.174607%\n",
      "\u001b[1;36m[libx264 @ 0x56026df7ab00] \u001b[0mframe I:4     Avg QP:17.45  size: 55661\n",
      "\u001b[1;36m[libx264 @ 0x56026df7ab00] \u001b[0mframe P:145   Avg QP:20.93  size:  6673\n",
      "\u001b[1;36m[libx264 @ 0x56026df7ab00] \u001b[0mframe B:421   Avg QP:29.09  size:   909\n",
      "\u001b[1;36m[libx264 @ 0x56026df7ab00] \u001b[0mconsecutive B-frames:  1.1%  0.7%  2.1% 96.1%\n",
      "\u001b[1;36m[libx264 @ 0x56026df7ab00] \u001b[0mmb I  I16..4: 25.3% 57.5% 17.3%\n",
      "\u001b[1;36m[libx264 @ 0x56026df7ab00] \u001b[0mmb P  I16..4:  1.6%  1.9%  0.5%  P16..4: 18.4%  6.0%  3.6%  0.0%  0.0%    skip:68.0%\n",
      "\u001b[1;36m[libx264 @ 0x56026df7ab00] \u001b[0mmb B  I16..4:  0.0%  0.1%  0.0%  B16..8: 15.8%  0.8%  0.1%  direct: 0.2%  skip:82.9%  L0:46.1% L1:51.0% BI: 2.8%\n",
      "\u001b[1;36m[libx264 @ 0x56026df7ab00] \u001b[0m8x8 transform intra:52.2% inter:67.4%\n",
      "\u001b[1;36m[libx264 @ 0x56026df7ab00] \u001b[0mcoded y,uvDC,uvAC intra: 43.3% 66.3% 28.7% inter: 2.4% 2.6% 0.1%\n",
      "\u001b[1;36m[libx264 @ 0x56026df7ab00] \u001b[0mi16 v,h,dc,p: 30% 42% 11% 16%\n",
      "\u001b[1;36m[libx264 @ 0x56026df7ab00] \u001b[0mi8 v,h,dc,ddl,ddr,vr,hd,vl,hu: 27% 29% 21%  4%  3%  4%  4%  4%  5%\n",
      "\u001b[1;36m[libx264 @ 0x56026df7ab00] \u001b[0mi4 v,h,dc,ddl,ddr,vr,hd,vl,hu: 33% 28% 12%  4%  4%  5%  5%  4%  4%\n",
      "\u001b[1;36m[libx264 @ 0x56026df7ab00] \u001b[0mi8c dc,h,v,p: 37% 34% 22%  8%\n",
      "\u001b[1;36m[libx264 @ 0x56026df7ab00] \u001b[0mWeighted P-Frames: Y:0.0% UV:0.0%\n",
      "\u001b[1;36m[libx264 @ 0x56026df7ab00] \u001b[0mref P L0: 66.3% 10.0% 17.5%  6.2%\n",
      "\u001b[1;36m[libx264 @ 0x56026df7ab00] \u001b[0mref B L0: 86.3% 11.3%  2.5%\n",
      "\u001b[1;36m[libx264 @ 0x56026df7ab00] \u001b[0mref B L1: 94.6%  5.4%\n",
      "\u001b[1;36m[libx264 @ 0x56026df7ab00] \u001b[0mkb/s:662.23\n",
      "\u001b[1;36m[aac @ 0x56026df73580] \u001b[0mQavg: 708.095\n"
     ]
    }
   ],
   "source": [
    "url = 'https://youtu.be/0DN4WgDRCj4'\n",
    "\n",
    "start = '00:01:38'\n",
    "end = '00:01:57'\n",
    "\n",
    "from pytube import YouTube\n",
    "DOWNLOAD_FOLDER = \"./downloads\"\n",
    "yt = YouTube(url)\n",
    "stream = yt.streams.get_highest_resolution()\n",
    "#stream = yt.streams.filter(progressive=True).last()\n",
    "\n",
    "stream.download(DOWNLOAD_FOLDER, filename='temp.mp4')\n",
    "\n",
    "!rm ./downloads/output.mp4\n",
    "\n",
    "!ffmpeg -i ./downloads/temp.mp4 -ss $start -to $end ./downloads/output.mp4\n",
    "!rm ./downloads/temp.mp4"
   ]
  },
  {
   "cell_type": "code",
   "execution_count": null,
   "id": "13c62b3c",
   "metadata": {},
   "outputs": [],
   "source": []
  }
 ],
 "metadata": {
  "kernelspec": {
   "display_name": "Python 3 (ipykernel)",
   "language": "python",
   "name": "python3"
  },
  "language_info": {
   "codemirror_mode": {
    "name": "ipython",
    "version": 3
   },
   "file_extension": ".py",
   "mimetype": "text/x-python",
   "name": "python",
   "nbconvert_exporter": "python",
   "pygments_lexer": "ipython3",
   "version": "3.8.10"
  }
 },
 "nbformat": 4,
 "nbformat_minor": 5
}
